<?xml version="1.0" standalone="no"?>
<!DOCTYPE svg PUBLIC "-//W3C//DTD SVG 20010904//EN"
 "http://www.w3.org/TR/2001/REC-SVG-20010904/DTD/svg10.dtd">
<svg version="1.0" xmlns="http://www.w3.org/2000/svg"
 width="192.000000pt" height="192.000000pt" viewBox="0 0 192.000000 192.000000"
 preserveAspectRatio="xMidYMid meet">
<metadata>
Created by potrace 1.16, written by Peter Selinger 2001-2019
</metadata>
<g transform="translate(0.000000,192.000000) scale(0.100000,-0.100000)"
fill="#000000" stroke="none">
<path d="M0 960 l0 -960 960 0 960 0 0 960 0 960 -960 0 -960 0 0 -960z m1167
614 c240 -35 494 -155 651 -307 61 -59 58 -76 -35 -169 -94 -95 -110 -98 -182
-34 -108 96 -261 177 -411 218 -122 33 -338 33 -460 0 -150 -41 -303 -122
-411 -218 -71 -63 -87 -60 -181 33 -98 98 -100 111 -21 183 264 241 660 352
1050 294z m3 -460 c89 -20 254 -103 318 -159 73 -65 71 -80 -25 -177 -64 -64
-83 -78 -109 -78 -17 0 -38 8 -45 17 -26 31 -130 92 -197 115 -92 31 -212 31
-304 0 -67 -23 -171 -84 -197 -115 -7 -9 -27 -17 -45 -17 -25 0 -45 14 -108
77 -98 97 -100 112 -25 177 97 85 264 159 400 176 90 11 252 4 337 -16z m-40
-463 c62 -32 90 -60 90 -90 0 -36 -224 -261 -260 -261 -36 0 -260 224 -260
261 0 29 28 58 80 84 60 31 82 34 195 32 92 -2 117 -7 155 -26z"/>
<path d="M785 1534 c-224 -34 -467 -147 -620 -287 l-50 -46 64 -65 65 -65 40
37 c96 88 258 174 406 214 75 20 108 23 270 23 162 0 195 -3 270 -23 148 -40
310 -126 406 -214 l40 -37 64 64 64 65 -28 29 c-15 16 -63 54 -106 85 -258
186 -583 267 -885 220z"/>
<path d="M873 1089 c-129 -15 -302 -89 -393 -168 l-45 -39 64 -65 63 -65 46
35 c108 82 192 108 352 108 160 0 244 -26 352 -108 l46 -35 63 65 64 65 -45
39 c-25 22 -90 62 -145 89 -145 71 -274 96 -422 79z"/>
</g>
</svg>
